# xmcd
#
# Track frame offsets:
#	150
#	15342
#	32306
#	48002
#	61495
#	72678
#	84321
#	97759
#	110457
#	127698
#	143150
#	157495
#	172742
#	188309
#	199426
#	212478
#	227881
#	242006
#	260256
#	278226
#	294316
#	309744
#
# Disc length: 4357 seconds
#
# Revision: 1
# Processed by: cddbd v1.5.2PL0 Copyright (c) Steve Scherf et al.
# Submitted via: audiograbber 1.83.01
#
DISCID=25110316
DTITLE=Tamra Rosanes - The Very Best Of 40 TH. Anniversary Album  CD 1
DYEAR=2012
DGENRE=Country
TTITLE0=Uncomplicated
TTITLE1=What Love Can Do
TTITLE2=Would You Lat With Me
TTITLE3=Precious Memories
TTITLE4=Carry On
TTITLE5=Rub It In
TTITLE6=Let The Good Times Roll
TTITLE7=My Toot Toot
TTITLE8=Jambalaya
TTITLE9=I Just Wanna Dance With You
TTITLE10=Always On My Mind
TTITLE11=Let It Be Me
TTITLE12=Just When I Needed You Most
TTITLE13=Never Ending Game Of Love
TTITLE14=Girls Night Out
TTITLE15=All Shook Up
TTITLE16=Cowgirl In Love
TTITLE17=Where Have All The Flowers Gone
TTITLE18=Lasso You
TTITLE19=The Whole Wide World
TTITLE20=Times Like These
TTITLE21=Farvel
EXTD=
EXTT0=
EXTT1=
EXTT2=
EXTT3=
EXTT4=
EXTT5=
EXTT6=
EXTT7=
EXTT8=
EXTT9=
EXTT10=
EXTT11=
EXTT12=
EXTT13=
EXTT14=
EXTT15=
EXTT16=
EXTT17=
EXTT18=
EXTT19=
EXTT20=
EXTT21=
PLAYORDER=
